# xmcd
# Copyright (C) 1995-1998 Ti Kan
#
# Track frame offsets:
#       150
#       10264
#       42823
#       62220
#       82282
#       91709
#       126899
#       153031
#       193496
#
# Disc length: 2728 seconds
#
# Revision: 0
# Processed by: cddbd v1.5.2PL0 Copyright (c) Steve Scherf et al.
# Submitted via: CD-Transfer v1.0
#
DISCID=710aa609
DTITLE=[Nara] - Prélude Au Hasard
DYEAR=04
DGENRE=
TTITLE0=Incipit
TTITLE1=Shooting Stars
TTITLE2=301
TTITLE3=As Hour And Year Collapsed
TTITLE4=Mediane
TTITLE5=Carence Désordonnée Du Flâneur
TTITLE6=Winter
TTITLE7=Steve In Washington
TTITLE8=Épilogue
EXTD=
EXTT0=
EXTT1=
EXTT2=
EXTT3=
EXTT4=
EXTT5=
EXTT6=
EXTT7=
EXTT8=
PLAYORDER=
